<mxfile host="app.diagrams.net" modified="2024-02-16T10:44:49.309Z" agent="Mozilla/5.0 (X11; Linux x86_64; rv:122.0) Gecko/20100101 Firefox/122.0" version="23.1.2" etag="qqZjX-Nj73gufPfW2UoB" type="github">
  <diagram name="Page-1" id="XURI-3gSdt1_LHFqaG5i">
    <mxGraphModel>
      <root>
        <mxCell id="0" />
        <mxCell id="1" parent="0" />
      </root>
    </mxGraphModel>
  </diagram>
</mxfile>
